<svg xmlns="http://www.w3.org/2000/svg" viewBox="0 0 512 512">
  <g fill="none" fill-rule="evenodd">
    <path fill="#000" fill-rule="nonzero" d="M464,0 L48,0 C21.49,0 0,21.49 0,48 L0,400 C0,426.51 21.49,448 48,448 L464,448 C490.51,448 512,426.51 512,400 L512,48 C512,21.49 490.51,0 464,0 Z M160,416 L48,416 C39.163,416 32,408.837 32,400 L32,320 L160,320 L160,416 Z M160,288 L32,288 L32,192 L160,192 L160,288 Z M160,160 L32,160 L32,64 L160,64 L160,160 Z M320,416 L192,416 L192,320 L320,320 L320,416 Z M320,288 L192,288 L192,192 L320,192 L320,288 Z M320,160 L192,160 L192,64 L320,64 L320,160 Z M480,320 L480,400 C480,408.837 472.837,416 464,416 L352,416 L352,320 L480,320 Z M480,288 L352,288 L352,192 L480,192 L480,288 Z M480,160 L352,160 L352,64 L480,64 L480,160 Z"/>
    <g fill="#4A90E2" transform="translate(192 64)">
      <rect width="128" height="96"/>
      <rect width="128" height="96" y="128"/>
      <rect width="128" height="96" y="256"/>
    </g>
  </g>
</svg>
