<svg xmlns="http://www.w3.org/2000/svg" width="486" height="542" viewBox="0 0 486 542">
  <g fill="none" fill-rule="evenodd" transform="translate(-114 -74)">
    <path fill="#000" fill-rule="nonzero" d="M426.5,23.8 C417.9,9.1 402.1,0 385,0 L161,0 C143.9,0 128.1,9.1 119.5,23.8 L7.5,215.8 C-1.2,230.7 -1.2,249.2 7.5,264.2 L119.5,456.2 C128.1,470.9 143.9,480 161,480 L385,480 C402.1,480 417.9,470.9 426.5,456.2 L538.5,264.2 C547.2,249.3 547.2,230.8 538.5,215.8 L426.5,23.8 Z M510.8,248.1 L398.8,440.1 C395.9,445 390.6,448 385,448 L161,448 C155.3,448 150,445 147.2,440.1 L35.2,248.1 C32.3,243.1 32.3,236.9 35.2,232 L147.2,40 C150,35 155.3,32 161,32 L385,32 C390.7,32 396,35 398.8,39.9 L510.8,231.9 C513.7,236.9 513.7,243.1 510.8,248.1 Z" transform="rotate(30 119.067 449.246)"/>
    <g stroke="#000" stroke-linecap="round" stroke-linejoin="round" stroke-width="31" transform="translate(242 156)">
      <path d="M226.5 128L226.5 382M2.5 128L2.5 382M228.5.5L3.5 127"/>
      <path d="M225.5,0.5 L0.5,127" transform="matrix(-1 0 0 1 226 0)"/>
    </g>
  </g>
</svg>
