<svg xmlns="http://www.w3.org/2000/svg" viewBox="0 0 486 542">
  <defs>
    <linearGradient id="data-curator-green-a" x1="75.102%" x2="24.878%" y1="0%" y2="100%">
      <stop offset="0%" stop-color="#3CDF1E"/>
      <stop offset="58.236%" stop-color="#0DBC37"/>
      <stop offset="100%" stop-color="#14A537"/>
    </linearGradient>
  </defs>
  <g fill="none" fill-rule="evenodd" transform="translate(-114 -74)">
    <path fill="#FFF" fill-rule="nonzero" d="M426.5,23.8 C417.9,9.1 402.1,0 385,0 L161,0 C143.9,0 128.1,9.1 119.5,23.8 L7.5,215.8 C-1.2,230.7 -1.2,249.2 7.5,264.2 L119.5,456.2 C128.1,470.9 143.9,480 161,480 L385,480 C402.1,480 417.9,470.9 426.5,456.2 L538.5,264.2 C547.2,249.3 547.2,230.8 538.5,215.8 L426.5,23.8 Z M511.8,249.832051 L399.8,441.832051 C396.9,446.732051 391.6,449.732051 386,449.732051 L162,449.732051 C156.3,449.732051 151,446.732051 148.2,441.832051 L36.2,249.832051 C33.3,244.832051 33.3,238.632051 36.2,233.732051 L148.2,41.7320508 C151,36.7320508 156.3,33.7320508 162,33.7320508 L386,33.7320508 C391.7,33.7320508 397,36.7320508 399.8,41.6320508 L511.8,233.632051 C514.7,238.632051 514.7,244.832051 511.8,249.832051 Z" transform="rotate(30 119.067 449.246)"/>
    <path fill="url(#data-curator-green-a)" d="M594.775,355.1 L482.775,547.1 C479.875,552 474.575,555 468.975,555 L244.975,555 C239.275,555 233.975,552 231.175,547.1 L119.175,355.1 C116.275,350.1 116.275,343.9 119.175,339 L231.175,147 C233.975,142 239.275,139 244.975,139 L468.975,139 C474.675,139 479.975,142 482.775,146.9 L594.775,338.9 C597.675,343.9 597.675,350.1 594.775,355.1 Z" transform="rotate(30 356.975 347)"/>
    <g stroke="#FFF" stroke-linecap="round" stroke-linejoin="round" stroke-width="31" transform="translate(242 156)">
      <path d="M226.5 128L226.5 382M2.5 128L2.5 382M228.5.5L3.5 127"/>
      <path d="M225.5,0.5 L0.5,127" transform="matrix(-1 0 0 1 226 0)"/>
    </g>
  </g>
</svg>
