<svg xmlns="http://www.w3.org/2000/svg" width="19" height="25" viewBox="0 0 19 25">
  <g fill="none" fill-rule="evenodd" transform="translate(1)">
    <g stroke="#999" stroke-linecap="round" stroke-linejoin="round" transform="translate(0 4)">
      <path d="M6.75 19.6334232L6.75 19.6334232C10.3089444 19.6334232 13.1944444 16.9686469 13.1944444 13.6819407L13.1944444 4.01078167C13.1944444 1.95603235 11.3916111.291105121 9.16666667.291105121L4.33333333.291105121C2.10838889.291105121.305555556 1.95603235.305555556 4.01078167L.305555556 13.6819407C.305555556 16.9686469 3.19105556 19.6334232 6.75 19.6334232zM13.1944444 5L7 5M7 .289811044L7 4.9245283"/>
    </g>
    <g fill="#999" fill-rule="nonzero" transform="translate(11)">
      <path d="M3.69329743 4.71977099L5.51888422 3.70677821C5.8410466 3.53212429 6.23480062 3.63691664 6.41377971 3.95129371L6.41377971 3.95129371C6.59275881 4.26567078 6.48537135 4.64990942 6.16320898 4.82456334L4.373418 5.83755612C4.1944389 5.94234847 3.94386816 5.8724869 3.8364807 5.69783297 3.76488906 5.55810983 3.65750161 5.41838669 3.58590997 5.27866355 3.44272669 5.10400962 3.47852251 4.85949413 3.69329743 4.71977099zM2.52865093 3.97694185C2.39194423 3.87450004 2.28941421 3.77205822 2.15270751 3.6696164 1.98182413 3.53302731 1.94764746 3.2939964 2.08435416 3.12326004L3.3830678 1.58663278C3.62230452 1.3134546 3.99824794 1.27930733 4.27166134 1.51833824L4.27166134 1.51833824C4.54507474 1.75736915 4.57925142 2.13298914 4.34001469 2.40616732L3.07547773 3.94279458C2.90459435 4.11353094 2.66535763 4.11353094 2.52865093 3.97694185zM.741735002 3.12767036C.597827859 3.05491215.417943931 3.01853304.274036788 2.94577483.0581760741 2.87301661-.0497542829 2.65474197.0221992884 2.43646733L.741735002.435616464C.849665359.0718253966 1.24541-.0736910302 1.56920107.0354462899L1.56920107.0354462899C1.92896893.14458361 2.07287607.544753784 1.96494571.872165744L1.24541 2.87301661C1.17345643 3.12767036.92161893 3.23680768.741735002 3.12767036z"/>
    </g>
  </g>
</svg>
