<svg xmlns="http://www.w3.org/2000/svg" xmlns:xlink="http://www.w3.org/1999/xlink" width="408" height="181" viewBox="0 0 408 181">
  <defs>
    <polygon id="odi-au-outline-transparent-k-a" points="0 180.94 407.094 180.94 407.094 .717 0 .717"/>
  </defs>
  <g fill="none" fill-rule="evenodd">
    <mask id="odi-au-outline-transparent-k-b" fill="#fff">
      <use xlink:href="#odi-au-outline-transparent-k-a"/>
    </mask>
    <path fill="#1A1919" d="M402.006,174.643 L322.374,174.643 L322.374,122.457 C318.323,133.666 311.995,143.535 303.489,151.685 C295.831,159.019 286.649,164.713 276.196,168.605 C265.567,172.562 253.846,174.568 241.368,174.568 L169.154,174.58 L169.154,122.41 C164.932,132.988 158.58,142.705 150.283,151 C134.219,167.064 112.863,175.912 90.143,175.912 C67.425,175.912 46.066,167.064 30.001,151 C13.937,134.936 5.089,113.578 5.089,90.858 C5.089,68.141 13.937,46.781 30.001,30.716 C46.066,14.653 67.425,5.805 90.143,5.805 C112.863,5.805 134.219,14.653 150.283,30.716 C158.58,39.013 164.932,48.729 169.154,59.308 L169.154,7.014 L241.368,7.026 C253.846,7.026 265.567,9.031 276.196,12.99 C286.649,16.879 295.831,22.573 303.489,29.911 C311.995,38.061 318.323,47.93 322.374,59.139 L322.374,7.078 L402.006,7.078 L402.006,174.643 Z M317.284,1.989 L317.284,38.239 C314.274,33.919 310.844,29.91 307.01,26.237 C298.846,18.415 289.077,12.353 277.971,8.22 C266.774,4.051 254.459,1.937 241.37,1.937 L164.065,1.925 L164.065,39.238 C161.054,34.94 157.655,30.892 153.88,27.118 C136.856,10.093 114.22,0.717 90.143,0.717 C66.066,0.717 43.431,10.093 26.404,27.118 C9.377,44.144 0,66.781 0,90.858 C0,114.936 9.377,137.574 26.404,154.597 C43.43,171.623 66.066,181 90.143,181 C114.221,181 136.857,171.623 153.88,154.597 C157.654,150.826 161.054,146.777 164.065,142.478 L164.065,179.67 L241.368,179.656 C254.459,179.656 266.774,177.543 277.971,173.373 C289.075,169.24 298.844,163.179 307.01,155.359 C310.844,151.685 314.274,147.676 317.284,143.357 L317.284,179.732 L407.094,179.732 L407.094,1.989 L317.284,1.989 L317.284,1.989 Z" mask="url(#odi-au-outline-transparent-k-b)"/>
    <polyline fill="#1A1919" points="295.036 84.956 295.036 84.388 294.825 84.388 295.036 84.956"/>
    <text fill="#000" font-family="HelveticaNeue-Bold, Helvetica Neue" font-size="32" font-weight="bold">
      <tspan x="57.621" y="100">Australian Network</tspan>
    </text>
  </g>
</svg>
