<svg xmlns="http://www.w3.org/2000/svg" viewBox="0 0 640 512"><path d="M272 64c60.28 0 111.899 37.044 133.36 89.604C419.97 137.862 440.829 128 464 128c44.183 0 80 35.817 80 80 0 18.55-6.331 35.612-16.927 49.181C572.931 264.413 608 304.109 608 352c0 53.019-42.981 96-96 96H144c-61.856 0-112-50.144-112-112 0-56.77 42.24-103.669 97.004-110.998A145.47 145.47 0 0 1 128 208c0-79.529 64.471-144 144-144m0-32c-94.444 0-171.749 74.49-175.83 168.157C39.171 220.236 0 274.272 0 336c0 79.583 64.404 144 144 144h368c70.74 0 128-57.249 128-128 0-46.976-25.815-90.781-68.262-113.208C574.558 228.898 576 218.571 576 208c0-61.898-50.092-112-112-112-16.734 0-32.898 3.631-47.981 10.785C384.386 61.786 331.688 32 272 32zm48 340V221.255l68.201 68.2c4.686 4.686 12.284 4.686 16.97 0l5.657-5.657c4.687-4.686 4.687-12.284 0-16.971l-98.343-98.343c-4.686-4.686-12.284-4.686-16.971 0l-98.343 98.343c-4.686 4.686-4.686 12.285 0 16.971l5.657 5.657c4.686 4.686 12.284 4.686 16.97 0l68.201-68.2V372c0 6.627 5.373 12 12 12h8c6.628 0 12.001-5.373 12.001-12z"/></svg>