<svg xmlns="http://www.w3.org/2000/svg" viewBox="0 0 512 512"><path d="M512 256c0-35.496-19.411-68.153-49.598-85.502 9.075-33.611-.289-70.424-25.383-95.517-25.092-25.094-61.902-34.458-95.518-25.384C324.153 19.411 291.496 0 256 0s-68.153 19.411-85.502 49.598c-33.612-9.076-70.425.291-95.518 25.384-25.094 25.093-34.458 61.905-25.383 95.517C19.411 187.847 0 220.504 0 256s19.411 68.153 49.598 85.502c-9.075 33.611.289 70.424 25.383 95.519 26.511 26.507 63.455 34.154 95.532 25.406C187.865 492.6 220.514 512 256 512s68.135-19.4 85.487-49.573c32.709 8.92 69.471.651 95.532-25.407 25.094-25.094 34.458-61.906 25.383-95.518C492.589 324.153 512 291.496 512 256zm-91.145 68.29c5.346 11.778 29.582 54.057-6.463 90.102-28.863 28.861-57.547 21.24-90.103 6.464C319.745 432.959 306.99 480 256 480c-52.106 0-64.681-49.533-68.29-59.145-32.611 14.801-61.35 22.286-90.103-6.463-36.746-36.747-10.826-80.49-6.463-90.103C79.042 319.745 32 306.99 32 256c0-52.106 49.533-64.681 59.145-68.29-5.346-11.778-29.582-54.057 6.463-90.102 36.836-36.833 80.756-10.706 90.103-6.464C192.255 79.041 205.01 32 256 32c52.106 0 64.681 49.533 68.29 59.145 11.769-5.342 54.059-29.58 90.103 6.464 36.746 36.745 10.826 80.489 6.463 90.102C432.958 192.255 480 205.01 480 256c0 52.106-49.533 64.681-59.145 68.29zm-32.404-138.802L207.971 364.52c-4.705 4.667-12.303 4.637-16.97-.068l-85.878-86.572c-4.667-4.705-4.637-12.303.068-16.97l8.52-8.451c4.705-4.667 12.303-4.637 16.971.068l68.976 69.533 163.441-162.129c4.705-4.667 12.303-4.637 16.97.068l8.452 8.52c4.666 4.703 4.635 12.301-.07 16.969z"/></svg>